<?xml version="1.0" encoding="utf-8"?>
<!-- Generator: Adobe Illustrator 19.2.0, SVG Export Plug-In . SVG Version: 6.00 Build 0)  -->
<svg version="1.1" id="Layer_1" xmlns="http://www.w3.org/2000/svg" xmlns:xlink="http://www.w3.org/1999/xlink" x="0px" y="0px"
	 viewBox="0 0 679.2 135.2" style="enable-background:new 0 0 679.2 135.2;" xml:space="preserve">
<g>
	<polygon points="18.6,28.5 28.5,22.8 29.9,25.1 66.6,3.9 63.9,2.3 61.2,0.8 59.9,0 0,34.6 0,36.1 17.2,26.2 	"/>
	<polygon points="18.6,50.3 47.4,33.7 48.7,36 85.5,14.8 82.8,13.2 80.1,11.7 78.8,10.9 0,56.3 0,57.9 17.2,48 	"/>
	<polygon points="18.6,61.2 56.8,39.1 58.1,41.4 94.9,20.2 92.2,18.7 89.5,17.1 88.2,16.3 0,67.2 0,68.8 17.2,58.8 	"/>
	<polygon points="18.6,72 66.5,44.4 67.8,46.7 104.3,25.6 101.6,24.1 98.9,22.5 97.6,21.8 0,78.1 0,79.6 17.2,69.7 	"/>
	<polygon points="18.6,82.9 75.9,49.8 77.2,52.2 113.7,31.1 111,29.5 108.4,28 107,27.2 0,89 0,90.5 17.2,80.6 	"/>
	<polygon points="117.8,33.4 116.4,32.6 0,99.9 0,101.4 17.2,91.5 18.6,93.8 75.9,60.7 77.2,63 119.8,38.5 119.8,35.4 119.8,34.6
		"/>
	<polygon points="7.4,108 17,102.5 18.4,104.8 75.6,71.7 77,74.1 119.8,49.3 119.8,46.2 119.8,43.1 119.8,41.6 6.1,107.2 	"/>
	<polyline points="75.6,82.6 77,85 119.8,60.2 119.8,57.1 119.8,54 119.8,52.5 15.5,112.7 16.8,113.5 26.6,107.8 28,110.1 	"/>
	<polygon points="26.2,118.9 36.1,113.2 37.4,115.6 75.6,93.5 77,95.8 119.8,71.1 119.8,68 119.8,64.9 119.8,63.3 24.9,118.1 	"/>
	<polygon points="35.7,124.3 45.5,118.7 46.8,121 75.6,104.4 77,106.7 119.8,82 119.8,78.9 119.8,75.8 119.8,74.2 34.3,123.6 	"/>
	<polygon points="43.7,129 45.1,129.8 54.9,124.1 56.2,126.5 75.6,115.3 77,117.6 119.8,92.9 119.8,89.8 119.8,86.6 119.8,85.1 	"/>
	<polygon points="54.5,135.2 64.3,129.6 65.7,131.9 75.6,126.1 77,128.5 119.8,103.8 119.8,100.6 119.8,97.5 119.8,96 53.2,134.5
		"/>
	<polygon points="76.1,9.3 73.4,7.8 73.4,7.8 70.7,6.2 69.3,5.4 0,45.5 0,47 17.2,37.1 18.6,39.4 38,28.2 39.3,30.5 	"/>
</g>
<g>
	<path d="M168,78.2V57h19.1c1.7,0,3,0.3,3.8,1c0.8,0.6,1.2,1.7,1.2,3.1v5c0,1.4-0.4,2.5-1.2,3.1c-0.8,0.6-2,1-3.8,1h-2.9l10.1,8
		h-7.4l-8.9-8h-4.9v8H168z M184.9,60.7h-11.8v5.9h11.8c0.9,0,1.5-0.1,1.8-0.4c0.3-0.3,0.5-0.7,0.5-1.3v-2.4c0-0.6-0.2-1.1-0.5-1.3
		C186.4,60.8,185.8,60.7,184.9,60.7z"/>
	<path d="M200.6,78.2V57h22.7v3.7h-17.5v4.6h10.2V69h-10.2v5.2h17.8v4H200.6z"/>
	<path d="M231,78.2V57H250c1.8,0,3,0.3,3.8,1c0.8,0.6,1.2,1.7,1.2,3.1v4.7c0,1.5-0.4,2.5-1.2,3.1c-0.8,0.6-2,1-3.8,1h-14v8.3H231z
		 M247.8,60.7H236v5.6h11.8c0.9,0,1.5-0.1,1.8-0.4c0.3-0.3,0.5-0.7,0.5-1.3v-2.2c0-0.6-0.2-1.1-0.5-1.3
		C249.3,60.8,248.7,60.7,247.8,60.7z"/>
	<path d="M268.4,57v17.2h14.7V57h5.2v16.1c0,1.9-0.4,3.2-1.2,3.9c-0.8,0.7-2.2,1.1-4.4,1.1h-14c-2.1,0-3.6-0.3-4.4-1.1
		c-0.8-0.7-1.1-2-1.1-4V57H268.4z"/>
	<path d="M297.8,78.2V57h19c1.8,0,3.1,0.3,3.8,1c0.8,0.6,1.2,1.7,1.2,3.1v2.5c0,1-0.3,1.8-0.9,2.4c-0.6,0.6-1.5,1-2.7,1.2
		c1.2,0.2,2.1,0.6,2.8,1.4c0.7,0.7,1,1.6,1,2.7V74c0,1.4-0.5,2.4-1.6,3.1c-1.1,0.7-2.7,1-4.9,1H297.8z M314.4,60.5h-11.6v5h11.6
		c0.9,0,1.5-0.1,1.8-0.3c0.3-0.2,0.5-0.6,0.5-1.2v-2c0-0.6-0.2-0.9-0.5-1.2S315.3,60.5,314.4,60.5z M314.4,69h-11.6v5.4h11.6
		c1,0,1.6-0.1,2-0.4c0.4-0.3,0.5-0.8,0.5-1.5v-1.6c0-0.7-0.2-1.2-0.5-1.5C316.1,69.1,315.4,69,314.4,69z"/>
	<path d="M330.7,78.2V57h5.2v17.2h16.6v4H330.7z"/>
	<path d="M358.3,78.2V57h5.1v21.2H358.3z"/>
	<path d="M391.4,60.9h-13.9v13.2h13.9v-4.5l5.2,1.1v2.5c0,1.9-0.4,3.2-1.1,3.9c-0.8,0.7-2.2,1.1-4.4,1.1h-13.2
		c-2.1,0-3.6-0.3-4.3-1.1c-0.8-0.7-1.1-2-1.1-4V62c0-1.9,0.4-3.2,1.1-3.9c0.8-0.7,2.2-1.1,4.4-1.1H391c2.2,0,3.7,0.3,4.4,1.1
		c0.8,0.7,1.1,2,1.1,3.9v2.1l-5.2,0.8V60.9z"/>
	<path d="M424.4,78.2V57h19.1c1.8,0,3,0.3,3.8,1c0.8,0.6,1.2,1.7,1.2,3.1v4.7c0,1.5-0.4,2.5-1.2,3.1c-0.8,0.6-2,1-3.8,1h-14v8.3
		H424.4z M441.3,60.7h-11.8v5.6h11.8c0.9,0,1.5-0.1,1.8-0.4c0.3-0.3,0.5-0.7,0.5-1.3v-2.2c0-0.6-0.2-1.1-0.5-1.3
		C442.8,60.8,442.2,60.7,441.3,60.7z"/>
	<path d="M455.8,78.2V57h19.1c1.7,0,3,0.3,3.8,1c0.8,0.6,1.2,1.7,1.2,3.1v5c0,1.4-0.4,2.5-1.2,3.1c-0.8,0.6-2,1-3.8,1H472l10.1,8
		h-7.4l-8.9-8h-4.9v8H455.8z M472.7,60.7h-11.8v5.9h11.8c0.9,0,1.5-0.1,1.8-0.4c0.3-0.3,0.5-0.7,0.5-1.3v-2.4c0-0.6-0.2-1.1-0.5-1.3
		C474.2,60.8,473.6,60.7,472.7,60.7z"/>
	<path d="M487.9,62c0-1.9,0.4-3.2,1.1-3.9c0.7-0.7,2.2-1.1,4.4-1.1h16.4c2.2,0,3.6,0.3,4.4,1.1c0.7,0.7,1.1,2,1.1,3.9v11.2
		c0,1.9-0.4,3.3-1.1,4c-0.8,0.7-2.2,1.1-4.4,1.1h-16.4c-2.2,0-3.6-0.3-4.4-1.1c-0.7-0.7-1.1-2-1.1-4V62z M493,74.1h17.1V60.9H493
		V74.1z"/>
	<path d="M536.7,60.8v17.4h-5.2V60.8h-10.2V57H547v3.8H536.7z"/>
	<path d="M553.1,62c0-1.9,0.4-3.2,1.1-3.9c0.7-0.7,2.2-1.1,4.4-1.1H575c2.2,0,3.6,0.3,4.4,1.1c0.7,0.7,1.1,2,1.1,3.9v11.2
		c0,1.9-0.4,3.3-1.1,4c-0.8,0.7-2.2,1.1-4.4,1.1h-16.4c-2.2,0-3.6-0.3-4.4-1.1c-0.7-0.7-1.1-2-1.1-4V62z M558.3,74.1h17.1V60.9
		h-17.1V74.1z"/>
	<path d="M607.9,60.9H594v13.2h13.9v-4.5l5.2,1.1v2.5c0,1.9-0.4,3.2-1.1,3.9c-0.8,0.7-2.2,1.1-4.4,1.1h-13.2c-2.1,0-3.6-0.3-4.3-1.1
		c-0.8-0.7-1.1-2-1.1-4V62c0-1.9,0.4-3.2,1.1-3.9c0.8-0.7,2.2-1.1,4.4-1.1h13.2c2.2,0,3.7,0.3,4.4,1.1c0.8,0.7,1.1,2,1.1,3.9v2.1
		l-5.2,0.8V60.9z"/>
	<path d="M621.1,62c0-1.9,0.4-3.2,1.1-3.9c0.7-0.7,2.2-1.1,4.4-1.1H643c2.2,0,3.6,0.3,4.4,1.1c0.7,0.7,1.1,2,1.1,3.9v11.2
		c0,1.9-0.4,3.3-1.1,4c-0.8,0.7-2.2,1.1-4.4,1.1h-16.4c-2.2,0-3.6-0.3-4.4-1.1c-0.7-0.7-1.1-2-1.1-4V62z M626.3,74.1h17.1V60.9
		h-17.1V74.1z"/>
	<path d="M657.4,78.2V57h5.2v17.2h16.6v4H657.4z"/>
</g>
</svg>
